<svg xmlns="http://www.w3.org/2000/svg" viewBox="0 0 204.28302 210.12805">
  <defs>
    <filter color-interpolation-filters="sRGB" id="a">
      <feGaussianBlur stdDeviation="12.51 12.2428" result="blur"/>
    </filter>
  </defs>
  <g fill-rule="evenodd">
    <path d="M159.7 267c-1-11.5-14.3-22.8-25.3-15.6-9.7 6.4-6.4 19.8-3.2 29 11.7 29.6 27.6 59 52.5 79.6 6.7 4 18.5 17 22.6 4.8 33-51 68-101 110.3-144.7 8-9.4 21.5-16 24-29 1.5-12-14-17.6-23-12.5-10.4 5.3-16.5 15.7-24.8 23.3-22.6 22.7-43.3 47.3-61 74-12.5 18.4-24.5 37-36.3 56-14-19-28.3-38.5-35.3-61.2l-.8-3.4z" filter="url(#a)" transform="matrix(.8002 0 0 .77776 -85.373 -92.656)"/>
    <path d="M50 75.6c-.7-9.5-12-19-21.2-13C20.6 68 23.4 79.3 26 87c10 24.7 23.4 49.3 44.3 66.5 5.7 3.3 15.6 14.2 19 4 28-42.6 57.3-84.3 93-120.8 6.7-8 18-13.3 20.2-24.5C203.7 2 190.7-2.8 183 1.6c-8.7 4.4-13.8 13-20.8 19.4-19 19-36.5 39.5-51.4 61.8-10.5 15.3-20.6 30.8-30.5 46.7-11.8-16-24-32-29.8-51l-.6-3z" fill="#ffb300"/>
  </g>
</svg>
