<svg xmlns="http://www.w3.org/2000/svg" viewBox="0 0 400 336.99999">
  <g transform="matrix(.69113 .0012 -.0012 .69116 .587 -.216)">
    <path d="M0 487l42.2-197.7 188.6-78.7c4.5 73.6 11.2 147 19.8 220.4 2.2 18.6 4.6 37.3 7 56m321.2 0l-42.2-197.7L348 210.6c-4.6 73.6-11.2 147-20 220.4-2 18.6-4.4 37.3-7 56" fill="#00796b" fill-rule="evenodd"/>
    <path d="M179.2 0l.6 155 19 37 27.6 24.4 14 191.2 18.6 79.2h82l-6-35 17.4-234 30-31 17.3-34.4L399 0H179z" fill="#eee" fill-rule="evenodd"/>
    <path d="M239.3 126.6l1.2 53.8c4.8 6 9 12.5 14.2 18.2l18.5 12.7c11 .5 21.8 1 32.8 0 5-2.5 9.8-6 14.8-9 7-3.6 13.2-9.2 16.6-16.7 5.6-11 4-24 4-36 0-8.3-.3-16.6-.5-25-4-5.8-9-8.5-16-8.8-5-1-10-1.8-15-1.4l-57.6 1.2-10 4.6" fill="#ff5722" fill-rule="evenodd"/>
    <ellipse ry="12.5" rx="30.4" cy="148.3" cx="290.5" fill="#dadee1"/>
    <ellipse ry="4.6" rx="23.3" cy="148.3" cx="290.5" fill="#ff5722"/>
    <path d="M290.4 211.3l-14.7 25 .6 24.8 9 8L266 487h55l-19.7-219.3 6.4-9.2 2-21.7-16-25" fill="#00796b" fill-rule="evenodd"/>
    <path d="M227 214.5l-55.5 66.3 10.8 35.4-25 18.4L206.8 487h53l-13.4-52c-3.6-31-6.6-62-9-93.2-2.3-31.8-4-63.8-5-95.7l-5-31zm126.7-2.6l55.6 66-11 35 25 18L377 486h-49.4c2.5-18 4.7-36.2 6.8-54.5 3.6-31 6.6-62 9-93 2.4-32 4-64 5-95.7l5.2-31.5z" fill="#003832" fill-rule="evenodd"/>
    <ellipse ry="10.5" rx="11.2" cy="55.6" cx="252.8" fill="#00796b"/>
    <ellipse transform="scale(-1 1)" ry="10.5" rx="11.2" cy="52.5" cx="-332" fill="#00796b"/>
  </g>
</svg>
