<?xml version="1.0" encoding="UTF-8" standalone="no"?>
<svg
   xmlns:dc="http://purl.org/dc/elements/1.1/"
   xmlns:cc="http://creativecommons.org/ns#"
   xmlns:rdf="http://www.w3.org/1999/02/22-rdf-syntax-ns#"
   xmlns:svg="http://www.w3.org/2000/svg"
   xmlns="http://www.w3.org/2000/svg"
   version="1.1"
   id="svg2"
   viewBox="0 0 400 336.99999">
  <metadata
     id="metadata28">
    <rdf:RDF>
      <cc:Work
         rdf:about="">
        <dc:format>image/svg+xml</dc:format>
        <dc:type
           rdf:resource="http://purl.org/dc/dcmitype/StillImage" />
        <dc:title></dc:title>
      </cc:Work>
    </rdf:RDF>
  </metadata>
  <defs
     id="defs26" />
  <g
     id="g4247">
    <path
       style="fill:#00796b;fill-rule:evenodd"
       id="path6"
       d="M 0.20021548,337.16938 29.405526,199.78723 159.84708,145.61926 c 3.02177,50.87477 7.56426,101.61396 13.4199,152.35542 1.49816,12.85822 2.93682,26.18102 4.57309,39.10859 m 222.18857,-0.01 L 371.1002,200.38051 240.84752,145.7599 c -3.26752,50.86385 -7.91706,101.58708 -14.08708,152.30766 -1.40458,12.85318 -3.08573,25.97261 -4.90511,38.89418" />
    <path
       style="fill:#eeeeee;fill-rule:evenodd"
       id="path8"
       d="m 124.4375,-9.6e-4 0.22867,107.13052 13.08707,25.59572 19.04591,16.89742 9.44638,132.1666 13.15521,55.45384 56.27743,-0.0992 -4.10478,-24.69183 12.30646,-161.71056 20.7711,-21.38996 11.99783,-23.75515 -0.30091,-105.33362 -152.0486,-0.264 z" />
    <path
       style="fill:#00796b;fill-rule:evenodd"
       id="path16"
       d="m 201.03759,146.17459 -10.18961,17.26136 0.38492,17.14149 6.21057,5.54008 -13.99552,151.07464 38.7038,-0.23043 -13.64852,-151.79264 4.43427,-6.35099 1.4083,-14.99577 -11.02808,-17.2982" />
    <path
       style="fill:#003832;fill-rule:evenodd"
       id="path18"
       d="m 157.21611,148.31022 -38.43727,45.75731 7.42172,24.48002 -17.30033,12.68735 34.42328,105.78741 36.53109,0.0636 -9.49517,-36.35163 c -2.45087,-21.43028 -4.48706,-42.85984 -6.10833,-64.42691 -1.55144,-21.98165 -2.68796,-44.10081 -3.34081,-66.15001 l -3.41845,-21.43196 z m 87.56929,-1.64498 38.34763,45.68328 -7.64443,24.1774 17.25665,12.47088 -33.07471,108.13144 -33.54897,0.0395 c 1.74942,-12.43788 3.58817,-26.10123 5.0615,-38.74694 2.52527,-21.42164 4.63586,-42.844 6.33177,-64.26708 1.69711,-22.11424 2.84132,-44.22944 3.57049,-66.13801 l 3.63168,-21.7653 z" />
    <g
       id="g4209"
       transform="translate(0,-4)">
      <path
         d="m 234.00446,94.334976 a 32.172932,32.172932 0 0 1 -16.08647,27.862574 32.172932,32.172932 0 0 1 -32.17293,0 32.172932,32.172932 0 0 1 -16.08646,-27.862575 l 32.17293,10e-7 z"
         id="path4184"
         style="opacity:1;fill:#00796b;fill-opacity:1;fill-rule:nonzero;stroke:none;stroke-width:20;stroke-miterlimit:4;stroke-dasharray:none;stroke-dashoffset:0;stroke-opacity:1" />
      <path
         d="m 228.63134,88.334984 a 26.799797,32.172932 0 0 1 -13.3999,27.862576 26.799797,32.172932 0 0 1 -26.7998,0 26.799797,32.172932 0 0 1 -13.39989,-27.862578 l 26.79979,2e-6 z"
         id="path4184-3"
         style="opacity:1;fill:#eeeeee;fill-opacity:1;fill-rule:nonzero;stroke:none;stroke-width:20;stroke-miterlimit:4;stroke-dasharray:none;stroke-dashoffset:0;stroke-opacity:1" />
    </g>
    <g
       id="g4243">
      <ellipse
         transform="matrix(0.99999849,0.00173628,-0.00173621,0.99999849,0,0)"
         ry="7.2571907"
         rx="7.7406673"
         cy="30.206623"
         cx="178.13474"
         id="ellipse20"
         style="fill:#00796b" />
      <ellipse
         transform="matrix(0.99999849,0.00173628,-0.00173621,0.99999849,0,0)"
         ry="7.2571907"
         rx="7.7406673"
         cy="30.125351"
         cx="224.93221"
         id="ellipse20-2"
         style="fill:#00796b" />
    </g>
  </g>
</svg>
