<svg viewBox="0 0 300 300" height="300" width="300"><style>.s0{fill:#fff;}</style><defs><clipPath clipPathUnits="userSpaceOnUse"><rect height="47250" width="28000" y="0" x="0"/></clipPath></defs><g transform="translate(0,-752.36216)"><g class="SlideGroup" transform="matrix(0.01071234,0,0,0.01071234,0.02355958,665.11255)"><g clip-path="url(#presentation_clip_path)" class="Slide"><g class="Page"><g class="com.sun.star.drawing.CustomShape"><path d="M14000 36150 0 36150 0 8150l28000 0 0 28000-14000 0z" fill="#00796b"/></g><g class="Group"><g class="com.sun.star.drawing.PolyPolygonShape"><path d="m7171 21686 378-19 356-86 338-168 211-189 146-211 105-210 106-316 42-335 0-2944 21-590 42-441 105-294 125-315 232-294 126-169 232-127 252-125 147-63 253-64 315-20 1304 0 20 1008-524 22-484 42-380 169-210 230-125 336-84 673 0 1451 0 1030-43 673-62 610-210 379-169 233-147 147-252 209-232 126-421 127 274 84 335 168 211 125 210 274 274 379 169 441 42 632 42 3049 19 358 64 315 105 210 252 230 169 106 252 105 337 44 588 0 0 1051-504 0-800-21-441-63-399-147-401-274-167-210-146-253-128-210-127-421-41-357-20-1050 0-2252-64-610-105-335-169-274-252-233-358-166-379-106-252-43-105 0 2-1031z" fill="#fff"/></g><g class="com.sun.star.drawing.PolyPolygonShape"><path d="m20761 21688-377-20-357-85-338-169-211-188-146-211-105-211-106-315-41-336 0-2943-22-591-42-440-105-294-125-316-232-293-126-169-232-127-252-126-147-63-253-64-315-19-1304 0-20 1008 524 22 484 42 380 169 211 230 124 335 84 673 0 1452 0 1030 43 673 62 610 210 379 169 233 147 146 252 210 232 126 421 127-274 83-335 169-211 125-210 274-274 379-169 441-41 631-42 3050-20 357-64 316-104 210-253 230-169 106-252 105-337 43-588 0 0 1051 504 0 800-20 441-63 399-147 401-275 167-210 146-252 128-211 127-420 41-358 21-1050 0-2251 63-610 105-335 169-275 252-232 358-166 379-106 252-43 105 0-2-1031z" fill="#fff"/></g></g></g></g></g></g></svg>
