<?xml version="1.0" encoding="UTF-8" standalone="no"?>
<svg
   viewBox="0 0 299.94553 299.94553"
   height="299.94553"
   width="299.94553"
   version="1.1"
   id="svg32"
   xmlns="http://www.w3.org/2000/svg"
   xmlns:svg="http://www.w3.org/2000/svg">
  <style
     id="style2">.s0{fill:#fff;}</style>
  <defs
     id="defs8" />
  <g
     transform="translate(-0.02355958,-752.41812)"
     id="g30">
    <g
       class="SlideGroup"
       transform="matrix(0.01071234,0,0,0.01071234,0.02355958,665.11255)"
       id="g28">
      <g
         clip-path="url(#presentation_clip_path)"
         class="Slide"
         id="g26">
        <g
           class="Page"
           id="g24">
          <g
             class="com.sun.star.drawing.CustomShape"
             id="g12">
            <path
               d="M 14000,36150 H 0 V 8150 h 28000 v 28000 z"
               fill="#00796b"
               id="path10" />
          </g>
          <g
             class="Group"
             id="g22">
            <g
               class="com.sun.star.drawing.PolyPolygonShape"
               id="g16">
              <path
                 d="m 7171,21686 378,-19 356,-86 338,-168 211,-189 146,-211 105,-210 106,-316 42,-335 v -2944 l 21,-590 42,-441 105,-294 125,-315 232,-294 126,-169 232,-127 252,-125 147,-63 253,-64 315,-20 h 1304 l 20,1008 -524,22 -484,42 -380,169 -210,230 -125,336 -84,673 v 1451 1030 l -43,673 -62,610 -210,379 -169,233 -147,147 -252,209 -232,126 -421,127 274,84 335,168 211,125 210,274 274,379 169,441 42,632 42,3049 19,358 64,315 105,210 252,230 169,106 252,105 337,44 h 588 v 1051 h -504 l -800,-21 -441,-63 -399,-147 -401,-274 -167,-210 -146,-253 -128,-210 -127,-421 -41,-357 -20,-1050 v -2252 l -64,-610 -105,-335 -169,-274 -252,-233 -358,-166 -379,-106 -252,-43 h -105 z"
                 fill="#ffffff"
                 id="path14" />
            </g>
            <g
               class="com.sun.star.drawing.PolyPolygonShape"
               id="g20">
              <path
                 d="m 20761,21688 -377,-20 -357,-85 -338,-169 -211,-188 -146,-211 -105,-211 -106,-315 -41,-336 v -2943 l -22,-591 -42,-440 -105,-294 -125,-316 -232,-293 -126,-169 -232,-127 -252,-126 -147,-63 -253,-64 -315,-19 h -1304 l -20,1008 524,22 484,42 380,169 211,230 124,335 84,673 v 1452 1030 l 43,673 62,610 210,379 169,233 147,146 252,210 232,126 421,127 -274,83 -335,169 -211,125 -210,274 -274,379 -169,441 -41,631 -42,3050 -20,357 -64,316 -104,210 -253,230 -169,106 -252,105 -337,43 h -588 v 1051 h 504 l 800,-20 441,-63 399,-147 401,-275 167,-210 146,-252 128,-211 127,-420 41,-358 21,-1050 v -2251 l 63,-610 105,-335 169,-275 252,-232 358,-166 379,-106 252,-43 h 105 z"
                 fill="#ffffff"
                 id="path18" />
            </g>
          </g>
        </g>
      </g>
    </g>
  </g>
</svg>
