<svg xmlns:svg="http://www.w3.org/2000/svg" xmlns="http://www.w3.org/2000/svg" version="1.1" viewBox="0 0 300 300" height="300" width="300"><style>.s0{fill:none;stroke-linejoin:round;stroke-width:400;stroke:#fff;}</style><defs><clipPath clipPathUnits="userSpaceOnUse"><rect height="47250" width="28000" y="0" x="0"/></clipPath></defs><g transform="translate(0,-752.36216)"><g class="SlideGroup" transform="matrix(0.01082455,0,0,0.01082455,-0.40548964,750.50799)"><g clip-path="url(#presentation_clip_path)" class="Slide"><g class="Page"><g class="Group"><g class="com.sun.star.drawing.CustomShape"><path d="M14000 28050 0 28050 0 50l28000 0 0 28000-14000 0z" fill="#ff5722"/></g><g class="Group"><g class="com.sun.star.drawing.LineShape"><path d="m13683 11768 0-6805" class="s0"/></g><g class="Group"><g class="com.sun.star.drawing.LineShape"><path d="M13682 11768 5483 17139" class="s0"/></g><g class="com.sun.star.drawing.LineShape"><path d="M13682 22510 5483 17139" class="s0"/></g><g class="com.sun.star.drawing.LineShape"><path d="M21882 17139 13683 11768" class="s0"/></g><g class="com.sun.star.drawing.LineShape"><path d="m21882 17139-8199 5371" class="s0"/></g></g><g class="com.sun.star.drawing.LineShape"><path d="m21882 17138 0-6805" class="s0"/></g><g class="Group"><g class="com.sun.star.drawing.LineShape"><path d="M13682 4973 5483 10344" class="s0"/></g><g class="com.sun.star.drawing.LineShape"><path d="M13682 15715 5483 10344" class="s0"/></g><g class="com.sun.star.drawing.LineShape"><path d="M21882 10344 13683 4973" class="s0"/></g><g class="com.sun.star.drawing.LineShape"><path d="m21882 10344-8199 5371" class="s0"/></g></g><g class="com.sun.star.drawing.LineShape"><path d="m5464 17179 0-6805" class="s0"/></g><g class="com.sun.star.drawing.LineShape"><path d="m13683 22590 0-6805" class="s0"/></g></g></g></g></g></g></g></svg>
