<svg xmlns:svg="http://www.w3.org/2000/svg" xmlns="http://www.w3.org/2000/svg" version="1.1" viewBox="0 0 300 300" height="300" width="300"><style>.s0{fill:#fff;}</style><defs><clipPath clipPathUnits="userSpaceOnUse"><rect height="47250" width="28000" y="0" x="0"/></clipPath></defs><g transform="translate(0,-752.36216)"><g class="SlideGroup" transform="matrix(0.01084911,0,0,0.01084911,-1.2429751,750.62257)"><g clip-path="url(#presentation_clip_path)" class="Slide"><g class="Page"><g class="Group"><g class="com.sun.star.drawing.CustomShape"><path d="M14000 28050 0 28050 0 50l28000 0 0 28000-14000 0z" fill="#ff5722"/></g><g class="Group"><g class="com.sun.star.drawing.ClosedBezierShape"><path d="m12897 18445c-69 155-1154-465-1532-861-1120-1102-1413-2928-1155-4151 259-1240 328-1378 1275-2583 947-1189 1034-2894 551-3600-17-34-137-259-310-465-138-156-327-224-361-293-104-172 551-258 827-172 430 189 825 344 1652 1325 810 1000 311 707 397 1103 103 397 207 1275 207 1275 103 878 240 1240 378 1326 121 86 431 103 586-103 138-241 155-603-52-1120-223-534-379-878 35-637 103 120 327 276 637 689 465 568 792 1309 792 1326 0 0 534 1085 414 2687-121 1584-896 2704-1241 3083-344 379-757 620-895 723-172 87-327-103-276-241 69-121 500-637 741-1033 259-413 310-724 362-1223 51-499-18-965-156-1292-154-344-465-844-602-792-138 69 120 654 120 827 17 154 17 551-585 551-603 17-620-517-551-1189 0-34 34-293 0-792-87-292-69-241-156-414-171-482-585-705-533-689 69 53-362-206-431-16-86 172 327 534 327 534 0 0 0 688 52 688 52 0-586 982-517 982 52 0-896 861-861 861 18 0-310 569-327 965-52 396 172 1344 172 1344 0 0 1068 1205 1016 1377z" fill="#fff"/></g><g class="com.sun.star.drawing.ClosedBezierShape"><path d="m8796 19772c9852 0 10008 34 10008 34l240 328 122 396c0 0-122 379-69 379 16 0-190 172-190 172l-259 87c0 0-9886 51-9921 51-34 0-378-396-378-396 0 0-69-466-69-413 0 34 155-414 155-414l361-224z" fill="#fff"/></g></g></g></g></g></g></g></svg>
