<svg xmlns="http://www.w3.org/2000/svg" version="1.2" viewBox="0 0 539.06036 441.28921" preserveAspectRatio="xMidYMid" fill-rule="evenodd" stroke-width="28.2" stroke-linejoin="round">
  <defs class="ClipPathGroup">
    <clipPath id="b">
      <path d="M0 0h21000v29700H0z"/>
    </clipPath>
    <filter id="a" color-interpolation-filters="sRGB">
      <feGaussianBlur stdDeviation="6.03 6.03" result="blur"/>
    </filter>
  </defs>
  <path transform="matrix(1.0544 .04462 -.04522 1.16668 34.932 -1.967)" d="M295.3 32.3l44.6 1 20 1.6 18 2 15 3 7 1 6 2 5 2 4 2 2 1 1 1 1 1 1 1 3 8 3 10 3 12 2 14 3.5 30 2 32v32l-2.5 28-2 12-2.3 10-1.4 4-1.8 3.7-1.8 3-2 2.2-1 1h-1l-3.7 1.4-11 3-14.5 3-18 2.4-44 3.6-50.7 3-52 1-49-.5-41-2.4-16-1.4-12.3-2-85 67 66-90.4-2.5-10-1-11-2.5-26-1-28.8.7-29.3 2-28 3-24L91 74l2.6-8.5 3-6.5 1.4-2.5 1.7-2 1.4-1 2-1 5-2.2 7-2 9-2 21.8-4 25-3.3 60.5-5 64.7-1.7z" fill="#1a1a1a" fill-opacity=".7" filter="url(#a)"/>
  <g class="SlideGroup Slide Page Group" clip-path="url(#b)" transform="matrix(.05308 0 0 .04998 -33.02 -131.267)">
    <g class="com.sun.star.drawing.PolyPolygonShape">
      <path class="BoundingBox" d="M2300 3599h7799v6002H2300z" fill="none"/>
      <path d="M7402 3599l839 23 378 29 340 43 293 57 126 34 112 38 95 42 78 46 32 25 27 26 23 26 18 28 69 159 61 202 55 240 46 270 69 604 35 644-3 629-42 561-37 237-47 200-28 83-30 72-34 59-36 45-21 17-26 18-70 33-204 61-278 55-343 49-831 76-952 48-983 18-922-14-774-46-303-37-231-45-1603 1346 1241-1809-43-201-36-230-48-524-18-576 10-586 37-555 65-484 41-202 49-169 54-131 29-49 31-38 27-22 35-22 98-43 130-42 160-40 398-76 484-67 1139-98 1219-37z" fill="#7b7a7b"/>
    </g>
    <g class="Group">
      <g class="com.sun.star.drawing.ClosedBezierShape">
        <path class="BoundingBox" d="M4528 5888h418v506h-418z" fill="none"/>
        <path d="M4785 6137c-185-67-237 221-36 182 92-7 198-227 36-182zm160-33v271c-110 57-58-121-111-35-167 172-450-120-216-241 73-41 182-9 247-31 7-185-264-66-297-102 8-106 217-85 295-46 65 38 83 116 82 184z" fill="#eee"/>
      </g>
      <g class="com.sun.star.drawing.ClosedBezierShape">
        <path class="BoundingBox" d="M5388 5888h416v494h-416z" fill="none"/>
        <path d="M5801 6088v286c-84 24-91-28-80-96-11-100 29-219-43-302-144-80-233 87-206 207v191c-84 24-91-28-80-96v-377c110-57 58 121 112 36 124-114 320-16 297 151z" fill="#eee"/>
      </g>
      <g class="com.sun.star.drawing.ClosedBezierShape">
        <path class="BoundingBox" d="M5924 5888h456v502h-456z" fill="none"/>
        <path d="M6377 6119c13 73-100 24-148 38h-220c-22 228 290 134 350 149-14 116-243 91-329 44-181-110-122-451 107-459 141-22 251 96 240 228zm-80-23c35-225-369-125-256 0h256z" fill="#eee"/>
      </g>
      <g class="com.sun.star.drawing.ClosedBezierShape">
        <path class="BoundingBox" d="M6461 5894h651v487h-651z" fill="none"/>
        <path d="M6461 5901c78-23 98 27 106 93l75 277c33-123 67-247 100-370 73-15 116 8 117 84 26 95 52 190 78 286 33-123 66-247 100-370 90-23 83 27 55 93-34 127-69 254-103 381-73 15-116-8-117-84l-83-305-105 389c-73 15-117-8-117-84-35-130-70-260-106-390z" fill="#eee"/>
      </g>
      <g class="com.sun.star.drawing.ClosedBezierShape">
        <path class="BoundingBox" d="M7232 5711h443v679h-443z" fill="none"/>
        <path d="M7588 6138c41-249-338-214-273 21-13 229 309 198 273-21zm-273-165c78-142 316-88 342 65 47 135-10 349-186 349-106 19-164-140-166-12-89 27-73-46-71-106v-552c84-23 91 28 81 96v160z" fill="#eee"/>
      </g>
      <g class="com.sun.star.drawing.ClosedBezierShape">
        <path class="BoundingBox" d="M7798 5710h92v672h-92z" fill="none"/>
        <path d="M7803 5902c86-24 92 28 82 96v377c-86 24-92-28-82-96v-377zm0-185c86-23 92 29 82 96-72 25-98-15-82-83v-13z" fill="#eee"/>
      </g>
      <g class="com.sun.star.drawing.ClosedBezierShape">
        <path class="BoundingBox" d="M8014 5888h456v502h-456z" fill="none"/>
        <path d="M8467 6119c13 73-100 24-148 38h-221c-21 228 291 134 351 149-14 116-244 91-329 44-181-110-122-451 107-459 140-22 250 96 240 228zm-80-23c35-225-369-125-256 0h256z" fill="#eee"/>
      </g>
      <g class="com.sun.star.drawing.ClosedBezierShape">
        <path class="BoundingBox" d="M8561 5888h456v502h-456z" fill="none"/>
        <path d="M9014 6119c13 73-100 24-148 38h-220c-22 228 290 134 350 149-14 116-244 91-329 44-181-110-122-451 107-459 140-22 250 96 240 228zm-80-23c35-225-369-125-256 0h256z" fill="#eee"/>
      </g>
      <g class="com.sun.star.drawing.ClosedBezierShape">
        <path class="BoundingBox" d="M4526 6969h442v672h-442z" fill="none"/>
        <path d="M4884 7213c40-242-337-209-273 21-13 221 309 192 273-21zm80 184c28 168-148 280-304 232-102 31-100-161-4-67 133 53 259-59 228-190-77 140-314 92-342-60-47-134 11-343 186-341 106-19 164 140 166 11 88-27 72 46 70 106v309z" fill="#eee"/>
      </g>
      <g class="com.sun.star.drawing.ClosedBezierShape">
        <path class="BoundingBox" d="M5118 6976h417v494h-417z" fill="none"/>
        <path d="M5120 7268v-286c84-24 90 28 80 96 11 101-29 220 43 303 143 80 233-87 206-207v-192c84-24 90 28 80 96v377c-110 58-57-121-112-35-121 115-324 12-297-152z" fill="#eee"/>
      </g>
      <g class="com.sun.star.drawing.ClosedBezierShape">
        <path class="BoundingBox" d="M5689 6792h92v671h-92z" fill="none"/>
        <path d="M5694 6983c85-24 92 28 81 96v377c-85 24-91-28-81-96v-377zm0-185c85-23 92 29 81 96-72 25-98-15-81-83v-13z" fill="#eee"/>
      </g>
      <g class="com.sun.star.drawing.ClosedBezierShape">
        <path class="BoundingBox" d="M5904 6792h445v679h-445z" fill="none"/>
        <path d="M6263 7054v-256c84-24 90 28 80 96v562c-108 57-60-118-109-34-110 106-307 20-320-125-41-139 40-349 218-325 55 5 105 36 131 82zm-274 166c-41 250 338 215 273-21 12-229-310-198-273 21z" fill="#eee"/>
      </g>
      <g class="com.sun.star.drawing.ClosedBezierShape">
        <path class="BoundingBox" d="M6471 6969h456v502h-456z" fill="none"/>
        <path d="M6924 7200c13 72-100 23-148 38h-220c-22 228 290 134 350 149-14 116-243 91-329 44-181-110-122-451 107-459 141-22 251 96 240 228zm-80-23c35-225-369-125-256 0h256z" fill="#eee"/>
      </g>
    </g>
    <g class="Graphic">
      <path class="BoundingBox" d="M4300 4100h3575v1501H4300z" fill="none"/>
      <path d="M6429 4609c-78 0-136 39-136 130 0 69 39 117 143 117 78 0 130-45 130-119 0-84-39-128-130-128h-7zm-156 650c-18 22-36 45-36 74 0 57 71 74 171 74 82 0 195-7 195-82 0-52-56-52-123-65l-208-13 1 12zm471-504c0 158-123 250-299 250-47 0-89-6-113-13l-39 75 143 13c246 13 389 23 389 207 0 164-143 256-389 256-247 0-351-65-351-176 0-65 26-91 78-143-52-13-65-52-65-91 0-26 13-52 39-78l91-78c-78-39-130-112-130-216 0-161 117-273 325-273 65 0 104 7 130 13h272v117l-122 10c22 32 41 72 41 127zm328-386c-78 0-124-46-124-126 0-82 46-126 127-126 83 0 130 45 130 126 0 78-47 126-130 126h-3zm-182 844v-110l74-10c20-4 23-10 23-30v-416c0-16-4-26-19-30l-78-26 16-117h299v585c0 26 0 26 26 39l78 13v104h-403l-16-2zm978-50c-52 26-143 62-234 62-169 0-234-70-234-230v-383c0-11 0-16-13-16h-104v-127c130-13 182-75 195-229h130v200c0 11 0 13 13 13h195v143h-208v338c0 83 26 117 101 117 39 0 81-13 114-23l39 123 6 12zm-2109-382l-650-647c-37-37-98-37-134 0l-135 135 169 169c41-13 87-4 117 28 32 32 41 78 28 117l163 164c41-13 87-5 117 26 45 45 45 117 0 161-43 44-115 44-159 0-34-32-41-82-26-123l-151-152v402c13 6 23 13 32 21 44 44 44 117 0 160-45 45-117 45-160 0-44-44-44-117 0-160 13-10 26-19 39-26v-405c-13-5-26-13-39-26-33-33-42-82-24-122l-168-169-442 442c-39 39-39 100 0 136l646 649c36 39 96 39 133 0l644-637c36-39 36-99 0-135v-8z" fill="#eee"/>
    </g>
  </g>
</svg>
