<svg xmlns="http://www.w3.org/2000/svg" viewBox="0 0 400 336.99999">
  <path d="M.2 337.2l29.2-137.4 130.4-54.2c3 51 7.6 101.6 13.5 152.4l4.5 39m222.2 0l-29-136.6-130-54.6c-3.2 50.8-8 101.5-14 152.3-1.4 13-3 26-5 39" fill="#00796b" fill-rule="evenodd"/>
  <path d="M124.4 0l.3 107 13 25.7 19 17 9.5 132 13.2 55.5h56.3l-4-24.7L244 150.7l20.6-21.3 12-23.8L276.2.3l-152-.3z" fill="#eee" fill-rule="evenodd"/>
  <path d="M201 146.2l-10.2 17.2.4 17.2 6.2 5.5-14 151.5 38.8-.2-13.7-151.7 4.4-6.4 1-15-11-17.3" fill="#00796b" fill-rule="evenodd"/>
  <path d="M157.2 148.3L118.8 194l7.4 24.5-17.3 12.7L143 337h37l-9.6-36.3c-2.5-21.4-4.5-42.8-6-64.4-1.7-22-2.8-44-3.5-66l-3.8-21.6zm87.6-1.6l38.3 45.6-7.2 24.2L293 229l-33 108-33.7.2c2-12.5 3.7-26 5.2-38.8 2.5-21.4 4.6-42.8 6.3-64.2 1.7-22.2 3-44.3 3.6-66.2l3.7-21.7z" fill="#003832" fill-rule="evenodd"/>
  <path d="M234 90.3a32.2 32.2 0 0 1-16 28 32.2 32.2 0 0 1-32.3 0 32.2 32.2 0 0 1-16-28h32z" fill="#00796b"/>
  <path d="M228.6 84.3a26.8 32.2 0 0 1-13.4 28 26.8 32.2 0 0 1-26.8 0 26.8 32.2 0 0 1-13.4-28h26.8z" fill="#eee"/>
  <g transform="rotate(.1)" fill="#00796b">
    <ellipse ry="7.3" rx="7.7" cy="30.2" cx="178.1"/>
    <ellipse ry="7.3" rx="7.7" cy="30.1" cx="224.9"/>
  </g>
</svg>
