<svg xmlns:svg="http://www.w3.org/2000/svg" xmlns="http://www.w3.org/2000/svg" version="1.1" viewBox="0 0 300 300" height="300" width="300"><defs><clipPath clipPathUnits="userSpaceOnUse"><rect height="47250" width="28000" y="0" x="0"/></clipPath></defs><g transform="translate(0,-752.36216)"><g class="SlideGroup" transform="matrix(0.01078988,0,0,0.01078988,-0.38740575,751.4652)"><g clip-path="url(#presentation_clip_path)" class="Slide"><g class="Page"><g class="Group"><g class="com.sun.star.drawing.CustomShape"><path d="M14000 28050 0 28050 0 50l28000 0 0 28000-14000 0z" fill="#ff5722"/></g><g class="com.sun.star.drawing.ClosedBezierShape"><path d="m11858 21080 16-2275-367 134-753 0-786-117-503-334-384-570-218-435-200-351-218-402-418-351-385-334 50-118 235-33 401 0 251 134 452 285 200 301 385 552 602 435 854 100 586-17 351-201 100-368 184-284 218-268 334-234-301 0-770-101-484-83-452-134-653-268-486-317-451-435-234-285-301-736-117-268-101-669-50-535 17-820 184-620 217-585 168-368 284-268 134-167-117-418-67-585-17-653 168-519 183-368 536 17 552 134 335 134 551 301 503 317 217 185 368-134 452-51 485-83 653 0 468 0 820 50 435 17 418 67 168 50 636-435 535-251 468-184 452-134 519 0 167 301 67 352 134 435-17 652-67 402-134 385 234 250 318 419 218 468 83 352 101 485 66 535 0 502-83 669-133 519-168 468-151 334-368 470-367 301-436 250-435 218-502 184-820 168-485 67-418 66 217 134 201 168 151 234 234 334 151 619 33 703-33 1238 0 1322c0 0-1138 435-2510 435-1372 0-2560-486-2560-486z" fill="#fff"/></g></g></g></g></g></g></svg>
