<?xml version="1.0" encoding="UTF-8" standalone="no"?>
<svg
   height="300.40009"
   viewBox="0 0 300.17776 300.40009"
   width="300.17776"
   version="1.1"
   id="svg297"
   xmlns="http://www.w3.org/2000/svg"
   xmlns:svg="http://www.w3.org/2000/svg">
  <defs
     id="defs301" />
  <g
     id="g2188"
     transform="matrix(4.1664668,0,0,4.1782146,0.05330389,-0.37067001)">
    <rect
       style="fill:#ff5722;fill-opacity:1"
       id="rect474"
       width="72.04612"
       height="71.896759"
       x="-0.012793547"
       y="0.088714927" />
    <path
       d="M 59,57 H 49.959375 V 41.60179 c 0,-4.221767 -1.604167,-6.581032 -4.945703,-6.581032 -3.635156,0 -5.534375,2.455182 -5.534375,6.581032 V 57 h -8.71263 V 27.666667 h 8.71263 v 3.951195 c 0,0 2.619661,-4.847372 8.844401,-4.847372 C 54.545573,26.77049 59,30.569937 59,38.427949 Z M 20.372526,23.825704 C 17.404818,23.825704 15,21.402017 15,18.412852 15,15.423686 17.404818,13 20.372526,13 c 2.967708,0 5.371094,2.423686 5.371094,5.412852 0,2.989165 -2.403386,5.412852 -5.371094,5.412852 z M 15.873698,57 h 9.085026 V 27.666667 h -9.085026 z"
       fill="#ffffff"
       id="path293"
       style="fill-rule:evenodd" />
  </g>
</svg>
